<svg class="diagram-root" style="background: #f5f6f6" xmlns="http://www.w3.org/2000/svg" xmlns:xlink="http://www.w3.org/1999/xlink"><style>.diagram-root { font-family: "Helvetica Neue", sans-serif; font-size: 12px; } .t { overflow: visible; } .t-bg { y: 40; fill: #fff;   } .th { fill: #005aa0;   } .tht { fill: #fff; font-size: 14px;  } .tf { fill: #323c46; overflow: visible; } .tf.pk { fill: #005aa0; font-weight: bold; } .tf.fk { font-weight: bold; } .ty { fill: #adb1b5; font-weight: normal; text-anchor: end; } .r { fill: transparent; stroke: #c3c3c3; stroke-width: 1; } .l { stroke: 1; } .i { fill: #c2c7ce; stroke: #c2c7ce; } .i.ix { fill: #afb3b6; stroke: #000; } .fa { fill: transparent; overflow: visible; } .fa .bg.hover { fill: #f7f7f7; } .c { cy: 12; r: 4; stroke: #d2d2dc; fill: #d2d2dc; } .hr { fill: transparent; stroke: #323c46; stroke-opacity: 0.035; stroke-width: 13; } .dc { stroke: #fa5a3c; fill: #fa5a3c; } .x { stroke: white; stroke-width: 1; } .hl .th { fill: #1b9bff; } .hl .tht {  } .fhl .bg { fill: #e7f4ff; } .fhls .bg {  } .r.hl { stroke: #1b9bff; } .dim { opacity: 0.25; }</style><g class="drawing-wrapper" transform="translate(67.45454545454544, -0.9090909090909101) scale(1,1)"><g class="rs"><path d="M 214.54545454545448 239.72727272727272 m -1, 0 a 1,1 0 1,0 2,0 a 1,1 0 1,0 -2,0 M 214.54545454545448 239.72727272727272 m -0.5, 0 a 0.5,0.5 0 1,0 1,0 a 0.5,0.5 0 1,0 -1,0  M214.54545454545448 239.72727272727272 L214.54545454545448 239.72727272727272 202.54545454545448 239.72727272727272 M 214.54545454545448 245.72727272727272 m -1, 0 a 1,1 0 1,0 2,0 a 1,1 0 1,0 -2,0 M 214.54545454545448 245.72727272727272 m -0.5, 0 a 0.5,0.5 0 1,0 1,0 a 0.5,0.5 0 1,0 -1,0  M214.54545454545448 245.72727272727272 L214.54545454545448 245.72727272727272 207.54545454545448 239.72727272727272 214.54545454545448 233.72727272727272 M 214.54545454545448 233.72727272727272 m -1, 0 a 1,1 0 1,0 2,0 a 1,1 0 1,0 -2,0 M 214.54545454545448 233.72727272727272 m -0.5, 0 a 0.5,0.5 0 1,0 1,0 a 0.5,0.5 0 1,0 -1,0  M202.54545454545448 239.72727272727272 Q 186.23 239.72727272727272, 169.92 163.82 T 137.29000000000002 87.91 M 125.29 87.91 m -1, 0 a 1,1 0 1,0 2,0 a 1,1 0 1,0 -2,0 M 125.29 87.91 m -0.5, 0 a 0.5,0.5 0 1,0 1,0 a 0.5,0.5 0 1,0 -1,0  M125.29 87.91 L125.29 87.91 137.29000000000002 87.91 M131.29000000000002 93.91 L131.29000000000002 93.91 131.29000000000002 81.91" id="h190920256" class="r"></path><path d="M 472.7290909090912 89.72727272727272 m -1, 0 a 1,1 0 1,0 2,0 a 1,1 0 1,0 -2,0 M 472.7290909090912 89.72727272727272 m -0.5, 0 a 0.5,0.5 0 1,0 1,0 a 0.5,0.5 0 1,0 -1,0  M472.7290909090912 89.72727272727272 L472.7290909090912 89.72727272727272 460.7290909090912 89.72727272727272 M 472.7290909090912 95.72727272727272 m -1, 0 a 1,1 0 1,0 2,0 a 1,1 0 1,0 -2,0 M 472.7290909090912 95.72727272727272 m -0.5, 0 a 0.5,0.5 0 1,0 1,0 a 0.5,0.5 0 1,0 -1,0  M472.7290909090912 95.72727272727272 L472.7290909090912 95.72727272727272 465.7290909090912 89.72727272727272 472.7290909090912 83.72727272727272 M 472.7290909090912 83.72727272727272 m -1, 0 a 1,1 0 1,0 2,0 a 1,1 0 1,0 -2,0 M 472.7290909090912 83.72727272727272 m -0.5, 0 a 0.5,0.5 0 1,0 1,0 a 0.5,0.5 0 1,0 -1,0  M460.7290909090912 89.72727272727272 Q 444.87 89.72727272727272, 429.01 89.73 T 397.29 89.72727272727272 M 385.29 89.72727272727272 m -1, 0 a 1,1 0 1,0 2,0 a 1,1 0 1,0 -2,0 M 385.29 89.72727272727272 m -0.5, 0 a 0.5,0.5 0 1,0 1,0 a 0.5,0.5 0 1,0 -1,0  M385.29 89.72727272727272 L385.29 89.72727272727272 397.29 89.72727272727272 M391.29 95.72727272727272 L391.29 95.72727272727272 391.29 83.72727272727272" id="h382700583" class="r"></path><path d="M 472.7290909090912 114.72727272727272 m -1, 0 a 1,1 0 1,0 2,0 a 1,1 0 1,0 -2,0 M 472.7290909090912 114.72727272727272 m -0.5, 0 a 0.5,0.5 0 1,0 1,0 a 0.5,0.5 0 1,0 -1,0  M472.7290909090912 114.72727272727272 L472.7290909090912 114.72727272727272 460.7290909090912 114.72727272727272 M 472.7290909090912 120.72727272727272 m -1, 0 a 1,1 0 1,0 2,0 a 1,1 0 1,0 -2,0 M 472.7290909090912 120.72727272727272 m -0.5, 0 a 0.5,0.5 0 1,0 1,0 a 0.5,0.5 0 1,0 -1,0  M472.7290909090912 120.72727272727272 L472.7290909090912 120.72727272727272 465.7290909090912 114.72727272727272 472.7290909090912 108.72727272727272 M 472.7290909090912 108.72727272727272 m -1, 0 a 1,1 0 1,0 2,0 a 1,1 0 1,0 -2,0 M 472.7290909090912 108.72727272727272 m -0.5, 0 a 0.5,0.5 0 1,0 1,0 a 0.5,0.5 0 1,0 -1,0  M460.7290909090912 114.72727272727272 C 426.2048642007315 114.72727272727272, 426.48086420073156 216.0909090909091, 460.2690909090911 216.0909090909091 M 472.2690909090911 216.0909090909091 m -1, 0 a 1,1 0 1,0 2,0 a 1,1 0 1,0 -2,0 M 472.2690909090911 216.0909090909091 m -0.5, 0 a 0.5,0.5 0 1,0 1,0 a 0.5,0.5 0 1,0 -1,0  M472.2690909090911 216.0909090909091 L472.2690909090911 216.0909090909091 460.2690909090911 216.0909090909091 M466.2690909090911 222.0909090909091 L466.2690909090911 222.0909090909091 466.2690909090911 210.0909090909091" id="h2219924934" class="r"></path></g><g class="hrs"></g><g class="ts"><svg width="170.74" height="225" x="-45.45" y="30.91" id="h2728321744" class="t"><rect height="40" width="170.74" class="th"></rect><text x="13" y="25" class="tht">user</text><rect height="185" width="170.74" class="t-bg"></rect><text x="13" y="61" class="tf pk">id<tspan x="157.74" class="ty">bigserial</tspan></text><path d="M7,14A2,2 0 0,1 5,12A2,2 0 0,1 7,10A2,2 0 0,1 9,12A2,2 0 0,1 7,14M12.65,10C11.83,7.67 9.61,6 7, 6A6, 6 0 0, 0 1, 12A6, 6 0 0, 0 7, 18C9.61, 18 11.83, 16.33 12.65, 14H17V18H21V14H23V10H12.65Z" class="i pk" transform="translate(93.05054687500001, 48) scale(0.65)"></path><text x="13" y="86" class="tf">username<tspan x="157.74" class="ty">text</tspan></text><text x="13" y="111" class="tf">email<tspan x="157.74" class="ty">text</tspan></text><path d="M22,18V22H18V19H15V16H12L9.74,13.74C9.19,13.91 8.61,14 8,14A6,6 0 0,1 2,8A6,6 0 0,1 8,2A6,6 0 0,1 14,8C14,8.61 13.91, 9.19 13.74, 9.74L22, 18M7, 5A2, 2 0 0, 0 5, 7A2, 2 0 0, 0 7, 9A2, 2 0 0, 0 9, 7A2, 2 0 0, 0 7, 5Z" class="i uq" transform="translate(122.39820312500001, 100.5) scale(0.5)"></path><text x="13" y="136" class="tf">password<tspan x="157.74" class="ty">text</tspan></text><text x="13" y="161" class="tf">created_at<tspan x="157.74" class="ty">timestamptz</tspan></text><text x="13" y="186" class="tf">updated_at<tspan x="157.74" class="ty">timestamptz</tspan></text><text x="13" y="211" class="tf">is_enabled<tspan x="157.74" class="ty">boolean</tspan></text></svg><svg width="170.74" height="225" x="214.54545454545448" y="32.72727272727273" id="h1960751553" class="t"><rect height="40" width="170.74" class="th"></rect><text x="13" y="25" class="tht">note</text><rect height="185" width="170.74" class="t-bg"></rect><text x="13" y="61" class="tf pk">id<tspan x="157.74" class="ty">bigserial</tspan></text><path d="M7,14A2,2 0 0,1 5,12A2,2 0 0,1 7,10A2,2 0 0,1 9,12A2,2 0 0,1 7,14M12.65,10C11.83,7.67 9.61,6 7, 6A6, 6 0 0, 0 1, 12A6, 6 0 0, 0 7, 18C9.61, 18 11.83, 16.33 12.65, 14H17V18H21V14H23V10H12.65Z" class="i pk" transform="translate(93.05054687500001, 48) scale(0.65)"></path><text x="13" y="86" class="tf">title<tspan x="157.74" class="ty">text</tspan></text><text x="13" y="111" class="tf">details<tspan x="157.74" class="ty">text</tspan></text><text x="13" y="136" class="tf">is_pinned<tspan x="157.74" class="ty">boolean</tspan></text><text x="13" y="161" class="tf">created_at<tspan x="157.74" class="ty">timestamptz</tspan></text><text x="13" y="186" class="tf">updated_at<tspan x="157.74" class="ty">timestamptz</tspan></text><text x="13" y="211" class="tf fk">user_id<tspan x="157.74" class="ty">bigserial</tspan></text></svg><svg width="150.06" height="100" x="472.7290909090912" y="32.72727272727273" id="h2614986013" class="t"><rect height="40" width="150.06" class="th"></rect><text x="13" y="25" class="tht">note_tag</text><rect height="60" width="150.06" class="t-bg"></rect><text x="13" y="61" class="tf pk">note_id<tspan x="137.06" class="ty">bigserial</tspan></text><path d="M7,14A2,2 0 0,1 5,12A2,2 0 0,1 7,10A2,2 0 0,1 9,12A2,2 0 0,1 7,14M12.65,10C11.83,7.67 9.61,6 7, 6A6, 6 0 0, 0 1, 12A6, 6 0 0, 0 7, 18C9.61, 18 11.83, 16.33 12.65, 14H17V18H21V14H23V10H12.65Z" class="i pk" transform="translate(72.370546875, 48) scale(0.65)"></path><text x="13" y="86" class="tf pk">tag_id<tspan x="137.06" class="ty">bigserial</tspan></text><path d="M7,14A2,2 0 0,1 5,12A2,2 0 0,1 7,10A2,2 0 0,1 9,12A2,2 0 0,1 7,14M12.65,10C11.83,7.67 9.61,6 7, 6A6, 6 0 0, 0 1, 12A6, 6 0 0, 0 7, 18C9.61, 18 11.83, 16.33 12.65, 14H17V18H21V14H23V10H12.65Z" class="i pk" transform="translate(72.370546875, 73) scale(0.65)"></path></svg><svg width="170.74" height="150" x="472.2690909090911" y="159.0909090909091" id="h2199300421" class="t"><rect height="40" width="170.74" class="th"></rect><text x="13" y="25" class="tht">tag</text><rect height="110" width="170.74" class="t-bg"></rect><text x="13" y="61" class="tf pk">id<tspan x="157.74" class="ty">bigserial</tspan></text><path d="M7,14A2,2 0 0,1 5,12A2,2 0 0,1 7,10A2,2 0 0,1 9,12A2,2 0 0,1 7,14M12.65,10C11.83,7.67 9.61,6 7, 6A6, 6 0 0, 0 1, 12A6, 6 0 0, 0 7, 18C9.61, 18 11.83, 16.33 12.65, 14H17V18H21V14H23V10H12.65Z" class="i pk" transform="translate(93.05054687500001, 48) scale(0.65)"></path><text x="13" y="86" class="tf">name<tspan x="157.74" class="ty">text</tspan></text><text x="13" y="111" class="tf">created_at<tspan x="157.74" class="ty">timestamptz</tspan></text><text x="13" y="136" class="tf">updated_at<tspan x="157.74" class="ty">timestamptz</tspan></text></svg></g></g><text class="qdbd-link" x="10" y="20">www.quickdatabasediagrams.com</text></svg>